<svg width="40" height="40" viewBox="0 0 40 40"  xmlns="http://www.w3.org/2000/svg">
    <path fill-rule="evenodd" clip-rule="evenodd" d="M10 0H0V10H3.33333V3.33333H10V0ZM28.3333 0V3.33333H35V10H38.3333V0H28.3333ZM10 36.6667H3.33333V30H0V40H10V36.6667ZM28.3333 40H38.3333V30H35V36.6667H28.3333V40Z"/>
    <path fill-rule="evenodd" clip-rule="evenodd" d="M10.0001 6.6665H6.66675V9.99984V18.3332H10.0001V9.6665H16.6667V6.6665H10.0001ZM23.3334 6.6665H20.0001V18.3332H23.3334L28.3334 11.3332V18.3332H31.6667V6.6665H28.3334L23.3334 13.6665V6.6665ZM23.3334 21.6665H20.0001V24.9998V33.3332H23.3334V24.6665H28.3334V33.3332H31.6667V24.9998V21.6665H28.3334H23.3334ZM6.66675 21.6665H10.0001H13.3334H16.6667V24.9998V25.8332H13.3334V24.6665H10.0001V30.3332H13.3334V29.1665H16.6667V33.3332H10.0001H6.66675V29.9998V24.9998V21.6665Z"/>
</svg>
