<svg xmlns="http://www.w3.org/2000/svg" xmlns:xlink="http://www.w3.org/1999/xlink"><defs><style>
    .sprite-symbol-usage {display: none;}
    .sprite-symbol-usage:target {display: inline;}
  </style><symbol viewBox="0 0 14 8" id="arrow">
    <path d="M6.99974 5.17217L11.9497 0.222168L13.3637 1.63617L6.99974 8.00017L0.635742 1.63617L2.04974 0.222168L6.99974 5.17217Z" />
</symbol><symbol viewBox="0 0 24 24" fill="none" id="check">
<path d="M4.56499 12.4068C4.29258 12.0947 3.81879 12.0626 3.50676 12.335C3.19472 12.6074 3.1626 13.0812 3.43501 13.3932L4.56499 12.4068ZM7.14286 16.5L6.57787 16.9932C6.7203 17.1564 6.92629 17.25 7.14286 17.25C7.35942 17.25 7.56542 17.1564 7.70784 16.9932L7.14286 16.5ZM15.565 7.99324C15.8374 7.68121 15.8053 7.20742 15.4932 6.93501C15.1812 6.6626 14.7074 6.69472 14.435 7.00676L15.565 7.99324ZM10.5064 11.5068C10.234 11.8188 10.2662 12.2926 10.5782 12.565C10.8902 12.8374 11.364 12.8053 11.6364 12.4932L10.5064 11.5068ZM9.67213 14.7432C9.94454 14.4312 9.91242 13.9574 9.60039 13.685C9.28835 13.4126 8.81457 13.4447 8.54215 13.7568L9.67213 14.7432ZM3.43501 13.3932L6.57787 16.9932L7.70784 16.0068L4.56499 12.4068L3.43501 13.3932ZM7.70784 16.9932L9.67213 14.7432L8.54215 13.7568L6.57787 16.0068L7.70784 16.9932ZM11.6364 12.4932L13.6007 10.2432L12.4707 9.25676L10.5064 11.5068L11.6364 12.4932ZM13.6007 10.2432L15.565 7.99324L14.435 7.00676L12.4707 9.25676L13.6007 10.2432Z" fill="#1C274C" />
<path d="M20.0002 7.5625L15.7144 12.0625M11.0002 16L11.4286 16.5625L13.5715 14.3125" stroke="#1C274C" stroke-width="1.5" stroke-linecap="round" stroke-linejoin="round" />
</symbol><symbol viewBox="0 0 40 40" id="logo">
    <path fill-rule="evenodd" clip-rule="evenodd" d="M10 0H0V10H3.33333V3.33333H10V0ZM28.3333 0V3.33333H35V10H38.3333V0H28.3333ZM10 36.6667H3.33333V30H0V40H10V36.6667ZM28.3333 40H38.3333V30H35V36.6667H28.3333V40Z" />
    <path fill-rule="evenodd" clip-rule="evenodd" d="M10.0001 6.6665H6.66675V9.99984V18.3332H10.0001V9.6665H16.6667V6.6665H10.0001ZM23.3334 6.6665H20.0001V18.3332H23.3334L28.3334 11.3332V18.3332H31.6667V6.6665H28.3334L23.3334 13.6665V6.6665ZM23.3334 21.6665H20.0001V24.9998V33.3332H23.3334V24.6665H28.3334V33.3332H31.6667V24.9998V21.6665H28.3334H23.3334ZM6.66675 21.6665H10.0001H13.3334H16.6667V24.9998V25.8332H13.3334V24.6665H10.0001V30.3332H13.3334V29.1665H16.6667V33.3332H10.0001H6.66675V29.9998V24.9998V21.6665Z" />
</symbol></defs><use id="arrow-usage" xlink:href="#arrow" class="sprite-symbol-usage" /><use id="check-usage" xlink:href="#check" class="sprite-symbol-usage" /><use id="logo-usage" xlink:href="#logo" class="sprite-symbol-usage" /></svg>